<svg preserveAspectRatio="none" overflow="visible" style="display: block;" width="35" height="35" viewBox="0 0 35 35" fill="none" xmlns="http://www.w3.org/2000/svg">
<path id="Vector" d="M33.7625 11.9892C35.856 9.89581 34.9013 7.45071 33.7625 6.26165L28.738 1.23746C26.6278 -0.855948 24.1993 0.0986476 23.0101 1.23746L20.163 4.10125H15.8252C12.643 4.10125 10.8007 5.77598 9.86284 7.70192L2.42665 15.1377V21.8366L1.23753 23.0089C-0.855993 25.1191 0.0986528 27.5475 1.23753 28.7365L6.26198 33.7607C7.16638 34.6651 8.13777 35 9.05892 35C10.248 35 11.3367 34.4138 11.9899 33.7607L16.5119 29.2222H22.5245C25.3716 29.2222 26.812 27.447 27.3312 25.7053C29.2237 25.2028 30.2621 23.7626 30.6808 22.3558C33.2768 21.6859 34.2482 19.2241 34.2482 17.4991V12.4749H33.26L33.7625 11.9892ZM30.8985 17.4991C30.8985 18.2527 30.5803 19.1738 29.2237 19.1738H27.5489V20.8485C27.5489 21.6022 27.2307 22.5233 25.8741 22.5233H24.1993V24.198C24.1993 24.9516 23.8811 25.8727 22.5245 25.8727H15.1385L9.64511 31.3658C9.12592 31.8515 8.82445 31.5668 8.64022 31.3826L3.63252 26.3919C3.14682 25.8727 3.43154 25.5713 3.61577 25.3871L5.77628 23.2099V16.511L9.12592 13.1615V15.8244C9.12592 17.8508 10.4658 20.8485 14.1504 20.8485C17.835 20.8485 19.1748 17.8508 19.1748 15.8244H30.8985V17.4991ZM31.3842 9.61111L28.537 12.4749H15.8252V15.8244C15.8252 16.578 15.507 17.4991 14.1504 17.4991C12.7938 17.4991 12.4756 16.578 12.4756 15.8244V10.8002C12.4756 10.0298 12.7603 7.45071 15.8252 7.45071H21.5363L25.3549 3.63233C25.8741 3.14665 26.1756 3.43136 26.3598 3.61558L31.3675 8.60627C31.8532 9.12544 31.5685 9.42689 31.3842 9.61111Z" fill="#02B702"/>
</svg>
